<?xml version="1.0" encoding="UTF-8"?>
<svg id="Layer_2" data-name="Layer 2" xmlns="http://www.w3.org/2000/svg" viewBox="0 0 494.99 273.83">
  <defs>
    <style>
      .cls-1 {
        fill: #1a833b;
      }

      .cls-2 {
        fill: #fff;
      }

      .cls-3 {
        fill: #1a589f;
      }
    </style>
  </defs>
  <path d="M74.2,193.74l-28.43,33.54,28.37,37.82h-11.82l-26.38-36.58v36.58h-9.45v-71.36h9.45v32.38l26.39-32.38h11.87ZM121.2,260.18l.37.22-4.37,6.36-.28-.09c-3.46-1.04-6.01-3.68-6.95-7.15-4.84,4.69-8.83,6.45-14.53,6.45-15.74,0-16.96-11.61-16.96-15.16,0-11.75,10.24-18.76,27.4-18.76h3.19v-3.19c0-4.67-.36-6.31-1.68-7.63-1.7-1.7-3.39-2.76-6.55-2.76-5.48,0-12.66,3.11-15.93,6.02l-.33.3-4.47-6.1.35-.24c6.7-4.58,14.04-6.91,21.82-6.91,7.14,0,12.12,2.82,14.41,8.17,1.11,2.97,1.11,7.02,1.11,11.32l-.36,16.93c-.35,8.09.28,10.15,3.76,12.24ZM109.42,238.9c-1.33-.28-2.92-.28-3.9-.28-11.92,0-17.23,3.65-17.23,11.83,0,6.02,2.81,8.95,8.59,8.95,4.96,0,9.62-2.92,12.19-7.62l.35-12.89ZM193.87,219.03l2.04-6.93h-13.09c.03-5.93.72-12.49,1.07-14.27l.12-.61-9.21,2v.33c0,.69-.11,2.2-.24,3.96-.2,2.69-.45,6-.47,8.59h-6.84v6.93h6.84v34.87c0,5.4,1.62,8.62,5.26,10.44,2.05,1.03,4.22,1.48,7.02,1.48,3.63,0,6.56-.7,9.2-2.21l.26-.15-1.25-5.84-.47.23c-1.47.74-2.88,1.04-4.86,1.04-4.77,0-6.07-1.54-6.07-7.15v-32.71h10.69ZM226.7,247.28c-.89,2.44-1.51,4.92-1.93,6.56-.15.59-.29,1.13-.4,1.52-.24-.74-.61-2.08-1-3.47-.4-1.44-.85-3.08-1.31-4.6l-11.99-35.62-9.09,1.98,18.61,51.82h8.48l19.9-51.73.21-.55h-9.52l-11.97,34.1ZM287.88,216.54c4.56,4.94,5.88,9.85,5.88,21.88v1.49h-32.39v1.39c0,4.98.82,8.65,2.44,10.92,3.28,4.92,8.48,5.95,12.27,5.95,5.01,0,8.81-1.41,12.32-4.57l.36-.32,3.69,5.74-.27.23c-5.01,4.24-11.24,6.57-17.54,6.57-14.24,0-23.08-10.64-23.08-27.76,0-8.58,1.74-14.11,6.21-19.69,4.19-4.95,9.35-7.35,15.79-7.35,5.68,0,10.77,1.96,14.33,5.52ZM261.02,233.69h22.59c.29-4.9-.35-8.05-2.11-10.51v-.02c-1.74-2.77-5.2-4.49-9.03-4.49-6.95,0-11.01,5.33-11.45,15.02ZM384.53,213.18h-11.18l-19.56,22.45h0s0-33.57,0-33.57c0-7.22-1.09-11.63-1.48-12.42l-.14-.27-8.75,1.59.24.49c.29.59,1.4,4.06,1.4,10.26v63.39h8.73v-28.94l23.39,28.79.12.15h11.88l-25.18-29.19,20.53-22.73ZM427.08,216.54c4.56,4.94,5.88,9.85,5.88,21.88v1.49h-32.39v1.39c0,4.98.82,8.65,2.44,10.92,3.28,4.92,8.48,5.95,12.27,5.95,5.01,0,8.81-1.41,12.32-4.57l.36-.32,3.7,5.74-.27.23c-5.01,4.24-11.24,6.57-17.54,6.57-14.24,0-23.08-10.64-23.08-27.76,0-8.59,1.74-14.11,6.2-19.69,4.19-4.95,9.35-7.35,15.8-7.35,5.68,0,10.77,1.96,14.33,5.52ZM400.58,233.69h22.56c-.03-4.86-.67-8.03-2.1-10.54-1.73-2.76-5.18-4.48-9.01-4.48-6.96,0-11.01,5.33-11.45,15.02ZM465.06,257.85c-1.47.74-2.88,1.04-4.86,1.04-4.77,0-6.07-1.54-6.07-7.15v-32.71h10.69l2.04-6.93h-13.09c.03-5.92.72-12.49,1.07-14.27l.12-.61-9.21,2v.33c0,.69-.11,2.2-.24,3.96-.2,2.69-.45,6-.47,8.59h-6.84v6.93h6.84v34.87c0,5.4,1.62,8.62,5.26,10.44,2.05,1.03,4.22,1.48,7.02,1.48,3.63,0,6.56-.7,9.2-2.21l.26-.15-1.25-5.84-.47.23ZM155.16,211.13c-5.72.23-11.36,3.31-14.99,8.11-.25-3.27-1.43-6.53-1.79-7.25l-.15-.3-8.72,2.38.22.44c.41.82,1.76,4.03,1.76,10.62v40h8.73v-32.44c0-4.18.33-5.56,2.74-7.97,2.44-2.09,6.07-3.57,9.25-3.77,1.61-.1,4.5.21,5.62.61l.37.13,3.93-9.82-.49-.09c-1.03-.19-4.42-.73-6.48-.64ZM330.41,211.13c-5.72.23-11.36,3.31-14.99,8.11-.26-3.27-1.43-6.53-1.79-7.25l-.15-.3-8.72,2.38.22.44c.41.82,1.76,4.02,1.76,10.62v40h8.73v-32.44c0-4.18.33-5.56,2.74-7.97,2.44-2.09,6.07-3.57,9.25-3.77,1.61-.1,4.5.21,5.62.61l.37.13,3.93-9.82-.49-.09c-1.03-.19-4.42-.73-6.48-.64Z"/>
  <g>
    <path class="cls-1" d="M292.04,6.85h-90.73c-4.55,0-8.25,3.69-8.25,8.25v55.63c7.12-5.42,16.03-12.99,32.11-9.02,13.85,3.42,16.87,14.1,38.79,26.23,13.41,7.43,26,1.7,36.33-4.3V15.1c0-4.55-3.69-8.25-8.25-8.25"/>
    <path class="cls-3" d="M271.05,112.75c-4.52-.55-8.04-2.11-11.49-4.35-7.68-4.74-15.04-12.49-30.69-20.61-12.47-6.06-24.64-1.44-35.78,4.91,0,0,0,0-.01,0v62.38c0,4.55,3.69,8.25,8.25,8.25h90.73c4.55,0,8.25-3.69,8.25-8.25v-50.85c-9.68,5.55-18.98,10.06-29.24,8.53"/>
    <path class="cls-2" d="M263.96,87.93c-21.91-12.13-24.93-22.81-38.79-26.23-16.08-3.97-24.99,3.61-32.11,9.02l.02,11.22v10.74c11.14-6.35,23.47-11.3,35.78-4.91,15.65,8.13,23.02,15.87,30.69,20.61,3.49,2.16,7.05,3.69,11.49,4.35,10.26,1.53,19.56-2.98,29.24-8.53l-.03-9.92.03-10.67c-10.33,6-22.91,11.73-36.33,4.3"/>
  </g>
</svg>